<?xml version="1.0" encoding="UTF-8"?>
<svg width="132px" height="271px" viewBox="0 0 132 271" version="1.1" xmlns="http://www.w3.org/2000/svg" xmlns:xlink="http://www.w3.org/1999/xlink">
    <title>Group</title>
    <g id="Lending-App" stroke="none" stroke-width="1" fill="none" fill-rule="evenodd">
        <g id="Welcome-Screen-Copy" transform="translate(-144.000000, -275.000000)">
            <g id="Group" transform="translate(144.000000, 275.000000)">
                <g id="Icon" fill="#FFCF00" fill-rule="nonzero">
                    <path d="M25.7567189,150 C38.999153,165.238503 52.2415872,180.465956 65.4840214,195.697091 C65.5182303,195.740064 65.5486376,195.801456 65.5701754,195.837063 C65.528366,195.953706 65.4384104,195.947566 65.3611246,195.953706 C63.5759554,196.20541 61.798388,196.458341 60.0132187,196.706361 C58.3002675,196.937192 56.5759129,197.168022 54.8502907,197.398852 C53.362861,197.613722 51.8728971,197.817541 50.3880011,198.023814 C49.1007534,198.200621 47.8223746,198.373744 46.5401948,198.545639 C45.0502308,198.750685 43.5551991,198.965554 42.0690361,199.169372 C40.803327,199.346179 39.5401518,199.509479 38.2807776,199.686286 C37.7587835,199.7575 37.2355222,199.840992 36.717329,199.90361 C34.3607536,200.199516 32.1346765,199.828713 30.1176506,198.588612 C27.868768,197.204857 26.5219724,195.201051 25.9378965,192.699977 C25.7706555,191.952233 25.7237775,191.203261 25.7237775,190.434644 C25.7237775,184.557059 25.7187096,178.674563 25.7073067,172.801888 C25.6921031,165.405487 25.6781663,158.000491 25.6578947,150.591811 L25.6578947,150.038063 C25.6921031,150.029468 25.7237775,150.019646 25.7567189,150 Z M105.377332,108.333333 C105.498819,108.334556 105.470594,108.416429 105.479184,108.465308 C105.486547,108.528852 105.479184,108.589952 105.479184,108.658382 C105.470594,111.897876 105.470594,115.137367 105.469367,118.378082 C105.460777,122.168691 105.454641,125.970299 105.452187,129.754799 C105.427644,147.193801 105.403101,164.626695 105.37365,182.060809 C105.37365,183.419661 105.183443,184.744297 104.724492,186.017609 C103.920713,188.233076 102.599081,190.066059 100.650378,191.428575 C99.4575962,192.247309 98.1322813,192.753211 96.6805718,192.925513 C95.6583618,193.053821 94.6459701,193.211457 93.6163972,193.350764 C92.6285471,193.492515 91.6431512,193.633044 90.6503937,193.777238 C89.3913454,193.951983 88.1372058,194.126727 86.8806106,194.311248 C86.5357843,194.350351 86.1983196,194.402897 85.8952159,194.444444 C85.8314048,194.427336 85.8179056,194.418783 85.7994979,194.413894 C85.7884543,194.407785 85.7798637,194.396786 85.7663658,194.383346 C85.6890556,194.310026 85.6178816,194.225708 85.5467076,194.137725 C73.1918357,178.916632 60.8443267,163.696761 48.496818,148.475668 C48.4845466,148.45856 48.4747294,148.425566 48.4649123,148.390128 C48.5103166,148.25571 48.6354852,148.277706 48.7324294,148.263042 C50.4222047,148.094407 52.1021629,147.824347 53.7624869,147.4883 C58.7373233,146.503377 63.5035447,144.902573 68.0169757,142.561242 C71.4026616,140.810131 74.5453742,138.666763 77.3592115,136.073703 C79.911669,133.720153 82.1094807,131.080657 83.8949728,128.101448 C85.8154514,124.892505 87.1689898,121.467269 87.9494519,117.826965 C88.1580665,116.88359 88.2844623,115.926773 88.4587171,114.985841 C88.4808056,114.851422 88.5102569,114.725557 88.5458433,114.560589 C92.9218336,114.599692 97.2487384,114.646129 101.596505,114.693785 C102.059138,113.985033 102.455505,113.267724 102.871507,112.563859 C103.296098,111.864881 103.71578,111.150018 104.129327,110.43882 C104.550237,109.734955 104.968693,109.027424 105.377332,108.333333 Z M28.9545347,113.897039 C30.2432621,113.916639 31.5344799,113.941141 32.8207171,113.950942 C34.9150549,113.976669 37.0081476,113.98157 39.1012403,113.999946 C42.4021257,114.030573 45.7055016,114.067326 49.0038969,114.097953 C52.0794108,114.13103 55.1599053,114.159208 58.2354189,114.186159 C61.454125,114.218012 64.6778118,114.248639 67.8977625,114.282942 C69.812799,114.306218 71.7353063,114.335621 73.6416274,114.356448 C73.7860639,114.361347 73.9242754,114.368698 74.1222536,114.3883 C74.1222536,114.717849 74.1272342,115.009421 74.1073119,115.283841 C73.9043531,118.783925 72.8771062,122.036541 71.0567006,125.042913 C69.079407,128.30288 66.3973603,130.889047 63.1500152,132.919022 C60.5401868,134.556968 57.7124578,135.724479 54.7564776,136.589394 C52.7156811,137.172536 50.6300593,137.612345 48.5294958,137.918617 C47.2083944,138.098706 45.8748417,138.245717 44.5524952,138.341274 C43.3571538,138.425805 42.1730187,138.490734 40.9801675,138.517686 C39.243187,138.56669 37.5037162,138.635296 35.7667357,138.687974 C34.2837652,138.732077 32.7983044,138.765155 31.3277854,138.815383 C30.5682456,138.826409 29.811196,138.860712 29.0529013,138.888889 C28.8972579,138.888889 28.7391241,138.881538 28.6071386,138.881538 C28.5697842,138.84111 28.5610682,138.822734 28.5548423,138.815383 C28.5386555,138.795781 28.5361652,138.785982 28.5361652,138.765155 C28.5361652,138.658571 28.5224685,138.548314 28.5224685,138.438055 C28.5224685,130.307129 28.5149976,122.179877 28.5087719,114.0514 C28.5087719,114.021997 28.5286943,113.997495 28.5386555,113.955843 C28.6644154,113.85661 28.8100975,113.897039 28.9545347,113.897039 Z M26.0207176,86.1115104 C26.841572,86.1484052 27.6547069,86.1932074 28.4588356,86.2419627 C29.2037803,86.2907179 29.9564447,86.3500152 30.7065359,86.3974519 C31.5312503,86.4514788 32.3688306,86.4831033 33.1961182,86.5331758 C34.6178175,86.6175099 36.0510965,86.7097488 37.4779422,86.8046236 C38.0620612,86.8415197 38.6423205,86.8744627 39.2251529,86.9113588 C40.9800832,87.0642122 42.7414466,87.19203 44.4899439,87.3672858 C46.8907503,87.6123795 49.277404,87.9668428 51.6421855,88.4583474 C54.3311917,89.0249613 56.9764533,89.77342 59.5007742,90.9119196 C61.8037985,91.9357778 63.934417,93.2640282 65.8180082,94.974412 C67.747917,96.7427759 69.2789782,98.83266 70.4549352,101.191357 C70.7019638,101.685498 70.9206872,102.205992 71.1522753,102.719898 C71.1934478,102.821362 71.2256122,102.939956 71.2719298,103.074361 C71.1419825,103.094128 71.0454881,103.108622 70.956712,103.108622 C69.1245849,103.038784 67.2976054,102.982122 65.4693387,102.918872 C65.4024342,102.910966 65.3329578,102.90833 65.2660545,102.90833 C63.8096161,102.864847 62.3390257,102.821362 60.8774421,102.773925 C58.6503279,102.706722 56.418066,102.619753 54.1922382,102.549914 L48.6019361,102.357528 L48.6019361,102.357528 C46.5124882,102.283738 44.411461,102.217852 42.3130068,102.136155 C40.3689454,102.071586 38.4313172,102.008337 36.4743898,101.939816 C34.5496274,101.867341 32.6261517,101.802774 30.6872369,101.73557 C30.5315575,101.727664 30.3642988,101.73557 30.1725945,101.73557 C28.7148701,103.93746 27.2610055,106.132762 25.8174339,108.333333 C25.6771939,108.280625 25.7170786,108.187067 25.7080723,108.113277 C25.7029259,108.024989 25.7080723,107.935386 25.7080723,107.853688 C25.6887733,100.801317 25.6771939,93.7436735 25.6617545,86.6847132 C25.6578947,86.510776 25.6578947,86.3500152 25.6578947,86.1484052 C25.8007079,86.1339115 25.9100695,86.1075573 26.0207176,86.1115104 Z M108.255536,83.3333333 C108.301227,83.4057942 108.333333,83.4209352 108.333333,83.4393207 C108.330864,88.9106078 108.327158,94.3721617 108.327158,99.8434477 C108.327158,99.8737298 108.295052,99.9169897 108.274059,99.9807983 C108.187618,99.9959394 108.093766,100.002428 108.004855,99.9991838 C107.813449,99.9959394 107.624512,99.9764717 107.430636,99.9667384 C105.862337,99.9223974 104.307621,99.8888709 102.743028,99.8434477 C100.791915,99.7904545 98.8494478,99.7298914 96.9032744,99.6704094 C95.1151676,99.6174151 93.3332334,99.564422 91.5438911,99.5157554 C91.4031153,99.5071033 91.2586341,99.4984511 91.1030385,99.4908811 C91.0598185,99.3729971 91.0165972,99.2605219 90.9918997,99.15778 C90.5596918,97.1072636 89.8866812,95.1108225 88.9543454,93.1890046 C88.1022785,91.4153516 87.0316366,89.7455217 85.726367,88.2065536 C85.6609179,88.1297672 85.6028793,88.0443297 85.5312553,87.9610544 C85.5263158,87.9524022 85.5312553,87.93618 85.5263158,87.9242834 C85.5769463,87.8193782 85.6930247,87.8550681 85.7708225,87.8550681 C86.5994274,87.8940013 87.4292679,87.9275278 88.2591083,87.9664621 C88.975339,88.0064776 89.6915696,88.0551441 90.4139752,88.0929962 C91.2536946,88.1373382 92.1032919,88.1676204 92.9430113,88.2119613 C94.2655692,88.2746878 95.5905968,88.3514742 96.9094494,88.423934 C97.6442038,88.4671938 98.3740187,88.4877426 99.1075375,88.5299214 C99.8941567,88.5666923 100.674601,88.6002178 101.451341,88.645641 C102.299705,88.6921453 103.139423,88.7386496 103.984082,88.778665 C104.142148,88.7873172 104.302682,88.7808283 104.478035,88.7808283 C105.740084,86.9779744 106.981138,85.1610616 108.255536,83.3333333 Z M40.9325085,39.7439862 C44.5846281,41.3899024 46.8395022,44.2073162 47.7296828,48.1494183 C47.8861843,48.8287857 47.9375168,49.5372507 47.9375168,50.2393903 C47.9375168,53.9398552 47.9375168,57.6428503 47.9450289,61.3369897 L47.9450289,61.9784036 C48.2004394,62.0087663 48.4132814,62.0378641 48.6198635,62.0619012 C49.7604466,62.189678 50.9010297,62.3136594 52.0478728,62.4363757 C52.7978282,62.5097523 53.5552956,62.5856594 54.316519,62.6716873 C55.3982575,62.7817524 56.471232,62.9006733 57.5517191,63.0221245 C58.2904059,63.0929709 59.0303453,63.1726733 59.7740401,63.24605 C60.5715718,63.3421989 61.3791196,63.4244314 62.1866674,63.5091942 C62.9128342,63.5863662 63.6364981,63.6648035 64.3551528,63.7419755 C65.1789773,63.8242081 66.0002965,63.9190919 66.8216171,64.0051197 C67.5302557,64.0747011 68.2376429,64.1581988 68.9437775,64.2227197 C70.0843605,64.3568221 71.2312041,64.4782732 72.3755425,64.5984592 C73.1004578,64.6680406 73.8228691,64.7490081 74.5465318,64.8211197 C75.3653483,64.9096778 76.1891716,65.0045616 77.0054841,65.0905895 C77.7616989,65.1639662 78.5216705,65.2360779 79.2803906,65.3246359 C80.3596246,65.4397615 81.4300952,65.5498266 82.5143372,65.6738081 C83.2693007,65.7509801 84.0280209,65.8294174 84.7829844,65.912915 C85.5730041,65.9926173 86.3617712,66.0748499 87.1455314,66.1608777 C87.8704455,66.24058 88.5878488,66.3126918 89.3215275,66.3860684 C90.1453521,66.4784219 90.9616646,66.577101 91.7867405,66.6517428 C92.4916224,66.7327103 93.2002623,66.8022917 93.9089009,66.881994 C95.0557445,67.0059754 96.1888155,67.1299568 97.3369105,67.2425521 C98.0292724,67.3184591 98.7153761,67.4082823 99.412746,67.469008 C101.479818,67.6094359 103.26018,68.4355567 104.770107,69.8499567 C106.532939,71.4844868 107.612175,73.5099378 108.109223,75.8719098 C108.268229,76.5867004 108.333333,77.321733 108.333333,78.0618259 C108.330829,78.7475189 108.333333,79.4357421 108.330829,80.1176398 C108.330829,80.2492119 108.313301,80.3845792 108.310797,80.5250072 C108.115483,80.5819375 107.941453,80.543984 107.767424,80.5325979 C107.607167,80.5325979 107.449412,80.5174165 107.285399,80.5035002 C106.177368,80.4225327 105.089369,80.3238538 103.992607,80.239091 C103.022297,80.1517979 102.060752,80.0594444 101.086687,79.9746816 C100.623443,79.9417886 100.152685,79.9000398 99.6831808,79.8608212 C98.2796751,79.7558166 96.8711613,79.6533422 95.4789242,79.52177 C93.9089009,79.4003189 92.3426329,79.2750724 90.7813743,79.1409701 C89.1938228,79.0131933 87.6200441,78.8778259 86.0299886,78.7475189 C84.4399319,78.6108864 82.8398604,78.4894352 81.2447969,78.3578631 C79.6797816,78.2288212 78.1135149,78.1035747 76.5560116,77.9656772 C75.2000821,77.8505516 73.8416486,77.7265701 72.4832164,77.6139748 C71.5041429,77.5228864 70.5125482,77.4608957 69.5309708,77.3748679 C68.5443853,77.3014911 67.5653119,77.2129329 66.5837344,77.1231097 C66.149286,77.0864214 65.7073256,77.0535283 65.2791379,77.0206353 C63.7091145,76.8827376 62.1491072,76.7600214 60.5853445,76.63604 C59.5962538,76.5411562 58.613425,76.4791655 57.6243355,76.3981982 C56.2596419,76.2780121 54.8886885,76.1552959 53.5189872,76.047761 C52.5486777,75.9642633 51.5758642,75.885826 50.6105629,75.8162447 C49.6289853,75.7352772 48.6373916,75.645454 47.6570661,75.5556307 C47.1938216,75.5227377 46.730577,75.4822539 46.2523084,75.449361 C44.7110813,75.3152586 43.1585862,75.1811564 41.6048391,75.0571749 C40.6132454,74.9825331 39.6078796,74.9142168 38.6062698,74.8218633 C37.2315605,74.7080029 35.8681192,74.5903471 34.4984179,74.4726913 C33.9850928,74.4334726 33.4630038,74.3967843 32.9183785,74.361361 C31.4860764,76.4095842 30.0687987,78.4780492 28.6352447,80.5325979 C28.4737351,80.4870538 28.5425958,80.3668677 28.5425958,80.2922258 C28.5388397,78.5704027 28.5388397,76.8485795 28.5388397,75.1318168 C28.5263197,66.033101 28.5213116,56.9293248 28.5087719,47.8407299 C28.5075394,46.7097161 28.6252286,45.6115952 29.0171084,44.5628138 C30.1601956,41.4594838 32.354973,39.6035583 35.5738964,39.0241351 C37.4256224,38.69647 39.236032,38.9747956 40.9325085,39.7439862 Z M35.63021,19.4596956 C42.2332471,19.247043 49.1114619,21.2530284 55.212054,25.8028851 C56.3447057,26.6534956 57.4663005,27.5996293 58.5424414,28.6424232 C60.3630371,30.3845828 60.2966999,33.1638504 58.4183656,34.8320934 C56.5363466,36.5185312 53.5364181,36.460535 51.7219649,34.7172382 C50.928372,33.9541905 50.1089811,33.2570992 49.2637924,32.6248272 C45.0304779,29.4611928 40.3610557,28.0681474 35.9655829,28.2080205 C31.6425899,28.3444822 27.5087816,29.9695122 24.2815856,32.8522632 C23.7275447,33.3492108 23.1808746,33.89392 22.6686018,34.4829791 C21.0310486,36.3650119 18.0458616,36.6584043 16.0102834,35.1379948 C13.9796192,33.6187224 13.6626735,30.8621984 15.308826,28.9767542 C16.0569654,28.1124975 16.8616146,27.3016882 17.719088,26.5363661 C22.6391185,22.1445773 28.9657493,19.664388 35.63021,19.4596956 Z M64.5401993,11.3950691 C66.3784123,12.9350137 68.1781241,14.6369225 69.934363,16.5136496 C71.7638836,18.4867841 71.7129597,21.6180905 69.8039491,23.5179554 C67.9023919,25.4113932 64.8680969,25.3561198 63.0348509,23.3868417 C61.5804263,21.8314718 60.0800459,20.4007887 58.5361938,19.1076466 C50.662925,12.5211055 41.9264403,9.62631807 33.6432989,9.92582312 C25.444616,10.2111885 17.6371745,13.6471417 11.5400173,19.7272236 C10.4855283,20.7812759 9.46830044,21.9304499 8.51690039,23.1618914 C6.85753973,25.2841357 3.83690687,25.6222037 1.77761042,23.8958718 C-0.280444113,22.1875358 -0.59716341,19.0588003 1.0671655,16.9339851 C2.26324664,15.3863279 3.54875442,13.9453614 4.90381622,12.5995166 C12.7062896,4.79952997 22.7469127,0.404646178 33.3178852,0.0254444459 C43.8155778,-0.340902984 54.7914544,3.23901841 64.5401993,11.3950691 Z"></path>
                </g>
                <text id="LendR" font-family="NovoSans-Bold, Novo Sans" font-size="40" font-weight="bold" fill="#FFFFFF">
                    <tspan x="2" y="259">LendR</tspan>
                </text>
            </g>
        </g>
    </g>
</svg>